# ProBuilder 5.0.4
# https://unity3d.com/unity/features/worldbuilding/probuilder
# 5/1/2022 11:43:38 PM

mtllib ./PolyShape.mtl
o PolyShape

g PolyShape
v 0.08078171 1.490116E-08 0.05639476
v 0.8518299 8.940697E-08 0.3100194
v 0.9316973 3.576279E-07 0.7799644
v 0.8267186 1.192093E-07 1.162573
v 0.6071216 2.384186E-07 1.679272
v -0.1162572 2.384186E-07 1.666354
v -0.8267186 1.192093E-07 1.214243
v -1.110903 1.192093E-07 0.8138011
v -0.787966 2.980232E-08 0.245432
v -0.3746067 1.862645E-09 0.0129174

vt -0.08078171 0.05639476
vt -0.8518299 0.3100194
vt -0.9316973 0.7799644
vt -0.8267186 1.162573
vt -0.6071216 1.679272
vt 0.1162572 1.666354
vt 0.8267186 1.214243
vt 1.110903 0.8138011
vt 0.787966 0.245432
vt 0.3746067 0.0129174

vn -1.392303E-07 1 -1.112082E-07

usemtl ProBuilder_Default_URP
f 5/5/1 4/4/1 6/6/1
f 7/7/1 9/9/1 8/8/1
f 9/9/1 7/7/1 10/10/1
f 10/10/1 7/7/1 1/1/1
f 1/1/1 7/7/1 6/6/1
f 4/4/1 1/1/1 6/6/1
f 1/1/1 3/3/1 2/2/1
f 4/4/1 3/3/1 1/1/1

