<svg xmlns="http://www.w3.org/2000/svg" viewBox="0 0 640.4 341.86"><defs><style>.cls-1{fill:#de1f26;}</style></defs><g id="Layer_2" data-name="Layer 2"><path class="cls-1" d="M945.23,447.87c10.72,3.54,24.48,7,147.6,0,105.25-5.95,119.25-9.81,147.61,0,49.77,17.22,105,63.11,98.4,98.4-9.16,49.28-137.77,73-221.4,73.8-76,.74-95.31-17.62-147.61,0-57.41,19.35-60.29,50.3-123,73.8-64,24-140.11,21.38-147.6,0-5-14.31,64.26-26.82,73.8-73.8.16-.78,0-.24,0-49.2,0-1.09,0-25.09,0-49.2,0-49,.16-48.46,0-49.2-9.94-46.17-76-54.37-73.8-73.8,2-18.25,63.57-39.52,123-24.6C882.7,389.25,883.07,427.33,945.23,447.87Z" transform="translate(-698.97 -369.04)"/><path class="cls-1" d="M945.23,447.87c10.72,3.54,24.48,7,147.6,0,105.25-5.95,119.25-9.81,147.61,0,49.77,17.22,105,63.11,98.4,98.4-9.16,49.28-137.77,73-221.4,73.8-76,.74-95.31-17.62-147.61,0-57.41,19.35-60.29,50.3-123,73.8-64,24-140.11,21.38-147.6,0-5-14.31,64.26-26.82,73.8-73.8.16-.78,0-.24,0-49.2,0-1.09,0-25.09,0-49.2,0-49,.16-48.46,0-49.2-9.94-46.17-76-54.37-73.8-73.8,2-18.25,63.57-39.52,123-24.6C882.7,389.25,883.07,427.33,945.23,447.87Z" transform="translate(-698.97 -369.04)"/></g></svg>